<?xml version="1.0" encoding="UTF-8"?>
<svg xmlns="http://www.w3.org/2000/svg" viewBox="0 0 100 100">
    <!-- Chess board -->
    <rect x="20" y="20" width="60" height="60" fill="none" stroke="currentColor" stroke-width="2"/>
    <!-- Chess squares -->
    <g fill="currentColor" opacity="0.2">
        <rect x="20" y="20" width="15" height="15"/>
        <rect x="50" y="20" width="15" height="15"/>
        <rect x="35" y="35" width="15" height="15"/>
        <rect x="65" y="35" width="15" height="15"/>
        <rect x="20" y="50" width="15" height="15"/>
        <rect x="50" y="50" width="15" height="15"/>
        <rect x="35" y="65" width="15" height="15"/>
        <rect x="65" y="65" width="15" height="15"/>
    </g>
    <!-- Chess pieces -->
    <g fill="none" stroke="currentColor" stroke-width="2">
        <!-- King -->
        <path d="M45,30 L45,40 M40,35 L50,35" stroke-width="3"/>
        <!-- Queen -->
        <circle cx="60" cy="35" r="5"/>
        <!-- Rook -->
        <path d="M30,65 L35,65 L35,60 L30,60 Z"/>
        <!-- Knight -->
        <path d="M65,65 C65,60 70,60 70,65"/>
    </g>
</svg>