<?xml version="1.0" encoding="UTF-8"?>
<svg xmlns="http://www.w3.org/2000/svg" viewBox="0 0 100 100">
    <!-- Tennis racket -->
    <ellipse cx="50" cy="35" rx="30" ry="45" fill="none" stroke="currentColor" stroke-width="4" transform="rotate(-15, 50, 50)"/>
    <line x1="50" y1="80" x2="50" y2="95" stroke="currentColor" stroke-width="4" transform="rotate(-15, 50, 50)"/>
    <!-- Strings -->
    <g stroke="currentColor" stroke-width="1" transform="rotate(-15, 50, 50)">
        <!-- Vertical strings -->
        <line x1="30" y1="10" x2="30" y2="60"/>
        <line x1="40" y1="5" x2="40" y2="65"/>
        <line x1="50" y1="0" x2="50" y2="70"/>
        <line x1="60" y1="5" x2="60" y2="65"/>
        <line x1="70" y1="10" x2="70" y2="60"/>
        <!-- Horizontal strings -->
        <line x1="25" y1="20" x2="75" y2="20"/>
        <line x1="22" y1="30" x2="78" y2="30"/>
        <line x1="20" y1="40" x2="80" y2="40"/>
        <line x1="22" y1="50" x2="78" y2="50"/>
        <line x1="25" y1="60" x2="75" y2="60"/>
    </g>
    <!-- Tennis ball -->
    <circle cx="75" cy="65" r="10" fill="yellow" stroke="white" stroke-width="1"/>
</svg>